<svg xmlns="http://www.w3.org/2000/svg" width="200" height="200" viewBox="0 0 120 120">
    <g fill="none" fill-rule="evenodd">
        <g fill="#ABABAB" fill-rule="nonzero">
            <g>
                <g>
                    <g>
                        <path d="M60 .003C26.866.003 0 26.863 0 60c0 33.136 26.864 59.997 60 59.997 33.139 0 60-26.86 60-59.997C120 26.864 93.139.003 60 .003zm-.015 31.79c8.103 0 14.668 6.568 14.668 14.667 0 8.1-6.565 14.667-14.668 14.667-8.099 0-14.665-6.566-14.665-14.667 0-8.099 6.566-14.667 14.665-14.667zm.002 70.667c-10.598 0-20.304-3.73-27.79-9.904-1.824-1.503-2.877-3.708-2.877-6.021 0-10.41 8.718-18.742 19.492-18.742h22.38c10.777 0 19.461 8.332 19.461 18.742 0 2.316-1.047 4.515-2.873 6.018-7.484 6.177-17.193 9.907-27.793 9.907z" transform="translate(-660 -280) translate(476 148) translate(64 64) translate(120 68)"/>
                    </g>
                </g>
            </g>
        </g>
    </g>
</svg>
